<svg version="1.0" xmlns="http://www.w3.org/2000/svg" width="700" height="700" viewBox="0 0 700 700">
  <g transform="translate(0,700) scale(0.1,-0.1)" fill="#000000" stroke="none">
    <path d="M3200 5500 c-800 -100 -1500 -600 -1850 -1300 -200 -400 -250 -850 -150 -1300 150 -650 600 -1200 1200 -1500 400 -200 850 -250 1300 -150 650 150 1200 600 1500 1200 200 400 250 850 150 1300 -150 650 -600 1200 -1200 1500 -350 175 -650 250 -950 250z m500 -500 c550 -100 1000 -450 1250 -950 150 -300 200 -650 150 -1000 -100 -550 -450 -1000 -950 -1250 -300 -150 -650 -200 -1000 -150 -550 100 -1000 450 -1250 950 -150 300 -200 650 -150 1000 100 550 450 1000 950 1250 300 150 700 200 1000 150z"/>
    <path d="M2800 4500 l0 -300 200 0 200 0 0 -400 0 -400 -200 0 -200 0 0 -300 0 -300 600 0 600 0 0 300 0 300 -200 0 -200 0 0 400 0 400 200 0 200 0 0 300 0 300 -600 0 -600 0 0 -300z"/>
  </g>
</svg>
